# xmcd
#
# Track frame offsets:
#	150
#	16642
#	31677
#	44876
#	57319
#	71112
#	82800
#	98024
#	111520
#	130037
#	142777
#	160619
#	177408
#	190067
#	204454
#	214900
#	229827
#	242864
#	260085
#	270720
#
# Disc length: 3835 seconds
#
# Revision: 0
# Processed by: cddbd v1.5.1PL0 Copyright (c) Steve Scherf et al.
# Submitted via: dBpowerAMP V4.0
#
DISCID=190ef914
DTITLE=Goiano E Paranaense - Grandes Sucessos
DYEAR=1900
DGENRE=Monda de viola
TTITLE0=O Doutor E O Caipira
TTITLE1=A Viola E A Saudade
TTITLE2=Grito De Liberdade
TTITLE3=Misterios Do Amor
TTITLE4=Amor Amigo
TTITLE5=O Caipira E O Lavrador
TTITLE6=Fugindo Da Solidão
TTITLE7=Marcas De Um Amor
TTITLE8=Colara De Paixões
TTITLE9=Renascer
TTITLE10=A Vida De Um Boiadeiro
TTITLE11=A Sereia E O Negro D'Agua
TTITLE12=A Voz Do Cantador
TTITLE13=O Vôo Da Andorinha
TTITLE14=Peão Companheiro
TTITLE15=Explosão De Amor
TTITLE16=Sede De Mundança
TTITLE17=Lamento De Um Peão
TTITLE18=Breve Chegarei
TTITLE19=O Grande Amigo
EXTD=Goiano E Paranaense - Grandes Sucessos
EXTT0=
EXTT1=
EXTT2=
EXTT3=
EXTT4=
EXTT5=
EXTT6=
EXTT7=
EXTT8=
EXTT9=
EXTT10=
EXTT11=
EXTT12=
EXTT13=
EXTT14=
EXTT15=
EXTT16=
EXTT17=
EXTT18=
EXTT19=
PLAYORDER=
